<svg xmlns="http://www.w3.org/2000/svg" width="16" height="16" viewBox="0 0 16 16">
<path fill="#C8B4FF" d="M4 0h6v1h-6zM3 1h3v1h-3zM8 1h4v1h-4zM2 2h2v1h-2zM11 2h2v1h-2zM1 3h2v1h-2zM12 3h1v1h-1zM0 4h2v2h-2zM12 4h2v1h-2zM13 5h1v3h-1zM0 6h1v2h-1zM2 6h2v1h-2zM5 6h4v1h-4zM10 6h2v1h-2zM3 7h8v1h-8zM0 8h2v2h-2zM4 8h1v1h-1zM9 8h1v1h-1zM12 9h1v1h-1zM1 10h2v1h-2zM11 10h2v1h-2zM2 11h2v1h-2zM10 11h2v1h-2zM3 12h3v1h-3zM9 12h2v1h-2zM4 13h3v1h-3z"/>
<path fill="#C8B4FF" d="M4 0h6v1h-6zM3 1h3v1h-3zM9 1h1v1h-1zM11 1h1v1h-1zM2 2h2v1h-2zM11 2h2v1h-2zM1 3h1v1h-1zM0 4h2v2h-2zM12 4h1v1h-1zM13 5h1v1h-1zM0 6h1v1h-1zM2 6h2v1h-2zM6 6h3v1h-3zM10 6h1v1h-1zM3 7h1v1h-1zM5 7h1v1h-1zM7 7h1v1h-1zM9 7h1v1h-1zM0 8h2v1h-2zM4 8h1v1h-1zM1 9h1v1h-1zM2 10h1v1h-1zM12 10h1v1h-1zM3 11h1v1h-1zM11 11h1v1h-1zM4 12h1v1h-1zM10 12h1v1h-1zM5 13h1v1h-1z"/>
<path fill="#0A0913" fill-opacity="0.75" d="M6 1h2v1h-2zM4 2h3v1h-3zM9 2h2v1h-2zM3 3h2v1h-2zM13 3h1v1h-1zM2 4h2v1h-2zM2 5h1v1h-1zM14 5h1v4h-1zM1 6h1v2h-1zM11 7h2v1h-2zM5 8h4v1h-4zM10 8h2v1h-2zM2 9h1v1h-1zM5 9h1v1h-1zM10 9h1v1h-1zM13 10h1v1h-1zM12 11h2v1h-2zM11 12h2v1h-2zM10 13h2v1h-2zM5 14h3v1h-3z"/>
<path fill="#9A80E0" d="M8 1h1v1h-1zM10 1h1v1h-1zM2 3h1v1h-1zM12 3h1v1h-1zM13 4h1v1h-1zM5 6h1v1h-1zM11 6h1v1h-1zM13 6h1v2h-1zM0 7h1v1h-1zM4 7h1v1h-1zM6 7h1v1h-1zM8 7h1v1h-1zM10 7h1v1h-1zM9 8h1v1h-1zM0 9h1v1h-1zM12 9h1v1h-1zM1 10h1v1h-1zM11 10h1v1h-1zM2 11h1v1h-1zM10 11h1v1h-1zM3 12h1v1h-1zM5 12h1v1h-1zM9 12h1v1h-1zM4 13h1v1h-1zM6 13h1v1h-1z"/>
</svg>
