<svg xmlns="http://www.w3.org/2000/svg" width="16" height="16" viewBox="0 0 16 16">
<path fill="#D2F6FF" d="M4 0h6v1h-6zM11 0h2v1h-2zM3 1h10v1h-10zM2 2h11v1h-11zM1 3h12v1h-12zM0 4h5v1h-5zM9 4h5v1h-5zM0 5h4v4h-4zM10 5h4v4h-4zM0 9h5v1h-5zM9 9h5v1h-5zM1 10h12v1h-12zM2 11h10v1h-10zM3 12h8v1h-8zM4 13h6v1h-6z"/>
<path fill="#D2F6FF" d="M4 0h6v1h-6zM11 0h2v1h-2zM3 1h10v1h-10zM2 2h5v1h-5zM10 2h3v1h-3zM1 3h6v1h-6zM11 3h2v1h-2zM0 4h5v1h-5zM12 4h2v5h-2zM0 5h4v4h-4zM0 9h2v1h-2zM3 9h1v1h-1zM11 9h3v1h-3zM1 10h3v1h-3zM11 10h2v1h-2zM2 11h2v1h-2zM10 11h2v1h-2zM3 12h8v1h-8zM4 13h6v1h-6z"/>
<path fill="#0A0913" fill-opacity="0.75" d="M13 1h1v3h-1zM5 4h4v1h-4zM4 5h2v1h-2zM14 5h1v5h-1zM4 6h1v3h-1zM13 10h2v1h-2zM12 11h2v1h-2zM11 12h2v1h-2zM10 13h2v1h-2zM5 14h6v1h-6z"/>
<path fill="#C8B4FF" d="M7 2h2v1h-2zM7 3h4v1h-4zM9 4h2v1h-2zM10 5h2v4h-2zM4 9h1v1h-1zM9 9h2v1h-2zM4 10h7v1h-7zM5 11h5v1h-5z"/>
<path fill="#8BE3F7" d="M9 2h1v1h-1zM11 4h1v1h-1zM2 9h1v1h-1zM4 11h1v1h-1z"/>
</svg>
