<svg xmlns="http://www.w3.org/2000/svg" width="16" height="16" viewBox="0 0 16 16">
<path fill="#9A80E0" d="M0 0h6v1h-6zM8 0h6v1h-6zM0 1h2v1h-2zM12 1h2v1h-2zM0 2h1v3h-1zM13 2h1v3h-1zM5 4h1v1h-1zM8 4h1v1h-1zM1 5h1v1h-1zM3 5h8v1h-8zM12 5h1v1h-1zM1 6h4v1h-4zM6 6h3v1h-3zM10 6h3v1h-3zM1 7h12v1h-12zM3 8h8v1h-8zM0 9h1v3h-1zM4 9h1v1h-1zM9 9h1v1h-1zM13 9h1v3h-1zM10 10h1v1h-1zM0 12h2v1h-2zM12 12h2v1h-2zM0 13h6v1h-6zM8 13h6v1h-6z"/>
<path fill="#C8B4FF" d="M0 0h1v1h-1zM2 0h1v1h-1zM4 0h1v1h-1zM8 0h1v1h-1zM10 0h1v1h-1zM1 1h1v1h-1zM0 2h1v1h-1zM0 4h1v1h-1zM8 4h1v1h-1zM1 5h1v1h-1zM3 5h1v1h-1zM5 5h1v1h-1zM7 5h1v1h-1zM9 5h1v1h-1zM2 6h1v1h-1zM4 6h1v1h-1zM6 6h1v1h-1zM8 6h1v1h-1zM10 6h1v1h-1zM3 7h1v1h-1zM7 7h1v1h-1zM4 8h1v1h-1zM6 8h1v1h-1zM8 8h1v1h-1zM10 8h1v1h-1zM9 9h1v1h-1zM0 10h1v1h-1zM10 10h1v1h-1zM0 12h1v1h-1zM1 13h1v1h-1zM3 13h1v1h-1zM5 13h1v1h-1zM9 13h1v1h-1z"/>
<path fill="#9A80E0" d="M1 0h1v1h-1zM3 0h1v1h-1zM5 0h1v1h-1zM9 0h1v1h-1zM0 1h1v1h-1zM0 3h1v1h-1zM5 4h1v1h-1zM4 5h1v1h-1zM6 5h1v1h-1zM8 5h1v1h-1zM10 5h1v1h-1zM1 6h1v1h-1zM3 6h1v1h-1zM7 6h1v1h-1zM1 7h2v1h-2zM4 7h3v1h-3zM8 7h3v1h-3zM3 8h1v1h-1zM5 8h1v1h-1zM7 8h1v1h-1zM9 8h1v1h-1zM0 9h1v1h-1zM4 9h1v1h-1zM0 11h1v1h-1zM1 12h1v1h-1zM0 13h1v1h-1zM2 13h1v1h-1zM4 13h1v1h-1zM8 13h1v1h-1z"/>
<path fill="#D7649A" d="M11 0h1v1h-1zM13 0h1v1h-1zM12 1h1v1h-1zM13 2h1v3h-1zM12 5h1v1h-1zM11 6h1v1h-1zM12 7h1v1h-1zM13 10h1v3h-1zM10 13h1v1h-1zM12 13h1v1h-1z"/>
<path fill="#FF9EC0" d="M12 0h1v1h-1zM13 1h1v1h-1zM12 6h1v1h-1zM11 7h1v1h-1zM13 9h1v1h-1zM12 12h1v1h-1zM11 13h1v1h-1zM13 13h1v1h-1z"/>
<path fill="#0A0913" fill-opacity="0.75" d="M2 1h5v1h-5zM9 1h3v1h-3zM14 1h1v5h-1zM1 2h2v1h-2zM1 3h1v2h-1zM5 6h1v1h-1zM9 6h1v1h-1zM13 6h1v2h-1zM2 8h1v1h-1zM11 8h3v1h-3zM5 9h4v1h-4zM10 9h2v1h-2zM1 10h1v2h-1zM5 10h1v1h-1zM14 10h1v4h-1zM11 11h1v1h-1zM1 14h6v1h-6zM9 14h6v1h-6z"/>
</svg>
