<svg xmlns="http://www.w3.org/2000/svg" width="24" height="24" viewBox="0 0 24 24">
<path fill="#962C64" d="M7 1h9v6h-9zM2 7h19v1h-19zM1 8h21v11h-21zM6 19h11v2h-11zM7 21h9v1h-9z"/>
<path fill="#FFF0C8" d="M7 1h3v2h-3zM7 3h1v1h-1zM7 4h2v3h-2zM2 7h2v1h-2zM5 7h1v1h-1zM7 7h1v1h-1zM9 7h1v1h-1zM1 8h9v1h-9zM1 9h1v1h-1zM1 10h2v3h-2zM1 13h1v1h-1zM1 14h2v3h-2zM6 14h4v1h-4zM7 15h1v1h-1zM9 15h1v1h-1zM6 16h2v1h-2zM1 17h1v1h-1zM3 17h1v1h-1zM7 17h3v1h-3zM1 18h7v1h-7zM7 19h1v1h-1zM9 19h1v1h-1zM6 20h4v1h-4zM7 21h3v1h-3z"/>
<path fill="#FF915E" d="M10 1h1v1h-1zM14 1h1v1h-1zM12 7h1v1h-1zM16 7h1v1h-1zM12 15h1v1h-1zM16 15h1v1h-1zM10 17h1v1h-1zM16 19h1v1h-1zM10 21h1v1h-1zM14 21h1v1h-1z"/>
<path fill="#FFB45E" d="M11 1h3v1h-3zM15 1h1v1h-1zM10 2h6v1h-6zM14 3h2v4h-2zM10 7h2v1h-2zM13 7h3v1h-3zM10 8h7v1h-7zM10 14h7v1h-7zM10 15h2v1h-2zM13 15h3v1h-3zM15 16h2v3h-2zM11 17h3v1h-3zM10 19h2v1h-2zM15 19h1v1h-1zM10 20h7v1h-7zM11 21h3v1h-3zM15 21h1v1h-1z"/>
<path fill="#0A0913" fill-opacity="0.75" d="M16 2h1v5h-1zM22 9h1v10h-1zM2 19h4v1h-4zM17 19h6v1h-6zM17 20h1v1h-1zM16 21h2v1h-2zM8 22h9v1h-9z"/>
<path fill="#FFD27A" d="M8 3h1v1h-1zM4 7h1v1h-1zM6 7h1v1h-1zM8 7h1v1h-1zM2 9h1v1h-1zM2 13h1v1h-1zM6 15h1v1h-1zM8 15h1v1h-1zM2 17h1v1h-1zM4 17h1v1h-1zM6 17h1v1h-1zM6 19h1v1h-1zM8 19h1v1h-1z"/>
<path fill="#9A7660" d="M9 3h1v4h-1zM3 9h6v5h-6zM3 14h3v3h-3zM8 16h1v1h-1zM5 17h1v1h-1zM8 18h1v1h-1z"/>
<path fill="#962C64" d="M10 3h4v4h-4zM9 9h11v5h-11zM17 14h3v3h-3zM9 16h6v1h-6zM14 17h1v1h-1zM17 17h1v1h-1zM9 18h6v1h-6zM12 19h3v1h-3z"/>
<path fill="#FF6E64" d="M17 7h4v1h-4zM17 8h5v1h-5zM20 9h2v8h-2zM18 17h4v1h-4zM17 18h5v1h-5z"/>
</svg>
